<svg xmlns="http://www.w3.org/2000/svg" version="1.1" xmlns:xlink="http://www.w3.org/1999/xlink" width="512" height="512" x="0" y="0" viewBox="0 0 64 64" style="enable-background:new 0 0 512 512" xml:space="preserve" class=""><g><circle cx="32" cy="32" r="29" fill="#006df0" opacity="1" data-original="#006df0"></circle><path fill="#2488ff" d="M32 3a29 29 0 0 0-20.506 49.506l41.012-41.012A28.909 28.909 0 0 0 32 3z" opacity="1" data-original="#2488ff"></path><path fill="#ffcd00" d="M45 28h-9v-9a4 4 0 0 0-8 0v9h-9a4 4 0 0 0 0 8h9v9a4 4 0 0 0 8 0v-9h9a4 4 0 0 0 0-8z" opacity="1" data-original="#ffcd00"></path><g fill="#231f20"><path d="M32 62a30 30 0 1 1 30-30 30.034 30.034 0 0 1-30 30zm0-58a28 28 0 1 0 28 28A28.032 28.032 0 0 0 32 4z" fill="#231f20" opacity="1" data-original="#231f20"></path><path d="M30 8.079a1 1 0 0 1-.078-2A28.251 28.251 0 0 1 32 6a1 1 0 0 1 0 2c-.638 0-1.284.025-1.921.076zM7 33a1 1 0 0 1-1-1A25.953 25.953 0 0 1 25.76 6.757a1 1 0 1 1 .48 1.943A23.959 23.959 0 0 0 8 32a1 1 0 0 1-1 1zM32 50a5.006 5.006 0 0 1-5-5v-8h-8a5 5 0 0 1 0-10h8v-8a5 5 0 0 1 10 0v8h8a5 5 0 0 1 0 10h-8v8a5.006 5.006 0 0 1-5 5zM19 29a3 3 0 0 0 0 6h9a1 1 0 0 1 1 1v9a3 3 0 0 0 6 0v-9a1 1 0 0 1 1-1h9a3 3 0 0 0 0-6h-9a1 1 0 0 1-1-1v-9a3 3 0 0 0-6 0v9a1 1 0 0 1-1 1z" fill="#231f20" opacity="1" data-original="#231f20"></path></g></g></svg>