<svg xmlns="http://www.w3.org/2000/svg" version="1.1" xmlns:xlink="http://www.w3.org/1999/xlink" width="512" height="512" x="0" y="0" viewBox="0 0 496 496" style="enable-background:new 0 0 512 512" xml:space="preserve"><g><path fill="#e6e9ed" d="M400 336v152H96V184c34.2 0 63.84-19.51 78.4-48H312c13.25 0 24-10.75 24-24 0-6.62-2.69-12.62-7.03-16.97C324.62 90.69 318.62 88 312 88H183.63a87.12 87.12 0 0 0-9.23-32H400v240z" opacity="1" data-original="#e6e9ed"></path><path fill="#fcd770" d="M488 232v32l-10.94 5.47a79.512 79.512 0 0 1-7.39 17.84l3.87 11.6-22.63 22.63-11.6-3.87a79.512 79.512 0 0 1-17.84 7.39L416 336h-16v-40c26.51 0 48-21.49 48-48s-21.49-48-48-48v-40h16l5.47 10.94a79.512 79.512 0 0 1 17.84 7.39l11.6-3.87 22.63 22.63-3.87 11.6a79.512 79.512 0 0 1 7.39 17.84z" opacity="1" data-original="#fcd770"></path><path fill="#ef7385" d="M296 408c13.25 0 24 10.75 24 24 0 6.62-2.69 12.62-7.03 16.97-4.35 4.34-10.35 7.03-16.97 7.03h-96c-13.25 0-24-10.75-24-24 0-6.62 2.69-12.62 7.03-16.97 4.35-4.34 10.35-7.03 16.97-7.03z" opacity="1" data-original="#ef7385"></path><path fill="#f0d0b4" d="M200 312h96v48h-96z" opacity="1" data-original="#f0d0b4"></path><circle cx="352" cy="280" r="16" fill="#f0d0b4" opacity="1" data-original="#f0d0b4"></circle><path fill="#f0d0b4" d="m312 224-64 32-64-32 64-32z" opacity="1" data-original="#f0d0b4"></path><path fill="#ef7385" d="M328.97 95.03c4.34 4.35 7.03 10.35 7.03 16.97 0 13.25-10.75 24-24 24H174.4c6.14-12 9.6-25.6 9.6-40 0-2.7-.12-5.37-.36-8H312c6.62 0 12.62 2.69 16.97 7.03z" opacity="1" data-original="#ef7385"></path><path fill="#5cd6b3" d="M183.64 88c.24 2.63.36 5.3.36 8 0 14.4-3.46 28-9.6 40-14.56 28.49-44.2 48-78.4 48-48.6 0-88-39.4-88-88S47.4 8 96 8c34.2 0 63.84 19.51 78.4 48a87.12 87.12 0 0 1 9.23 32z" opacity="1" data-original="#5cd6b3"></path><path d="m72.428 141.436 31.977-96.033 15.184 5.056-31.977 96.033zM133.657 125.657 163.313 96l-29.656-29.657-11.314 11.314L140.687 96l-18.344 18.343zM58.343 66.343 28.687 96l29.656 29.657 11.314-11.314L51.313 96l18.344-18.343z" fill="#000000" opacity="1" data-original="#000000"></path><path d="M483.728 220.919a87.645 87.645 0 0 0-5.376-12.971l4.34-13.021-29.62-29.62-13.021 4.34a87.645 87.645 0 0 0-12.971-5.376L420.944 152H408V48H179.113C162.49 19.328 131.46 0 96 0 43.065 0 0 43.065 0 96c0 50.24 38.795 91.585 88 95.664V496h320V344h12.944l6.136-12.272a87.748 87.748 0 0 0 12.971-5.375l13.021 4.34 29.62-29.62-4.34-13.021a87.533 87.533 0 0 0 5.375-12.971L496 268.944v-41.889zM408 208.805c18.236 3.717 32 19.878 32 39.195s-13.764 35.479-32 39.195zM313.889 232H344v25.376c-9.311 3.302-16 12.194-16 22.624s6.689 19.322 16 22.624V328h-40v-24h-48v-43.056zM352 288c-4.411 0-8-3.589-8-8s3.589-8 8-8 8 3.589 8 8-3.589 8-8 8zm-56 128c8.822 0 16 7.178 16 16s-7.178 16-16 16h-96c-8.822 0-16-7.178-16-16s7.178-16 16-16zm-96-16c-14.884 0-27.426 10.214-30.987 24H136V232h46.111L240 260.944V304h-48v64h48v32zm8-48v-32h80v32zm40-104.944L201.889 224 248 200.944 294.111 224zM186.509 128A95.566 95.566 0 0 0 192 96h120c8.822 0 16 7.178 16 16s-7.178 16-16 16zM16 96c0-44.112 35.888-80 80-80s80 35.888 80 80-35.888 80-80 80-80-35.888-80-80zm376 384H104V191.664c32.091-2.66 59.753-21.17 75.113-47.664H240v43.056L182.111 216H120v224h49.013c3.561 13.786 16.104 24 30.987 24h96c17.645 0 32-14.355 32-32s-14.355-32-32-32h-40v-32h48v-24h56v-41.376c9.311-3.302 16-12.194 16-22.624s-6.689-19.322-16-22.624V216h-46.111L256 187.056V144h56c17.645 0 32-14.355 32-32s-14.355-32-32-32H190.659a95.229 95.229 0 0 0-4.15-16H392zm88-220.944-9.693 4.847-.952 3.423a71.64 71.64 0 0 1-6.648 16.042l-1.75 3.095 3.429 10.289-15.635 15.635-10.289-3.429-3.094 1.749a71.604 71.604 0 0 1-16.043 6.649l-3.423.952-4.846 9.692H408v-24.581c27.101-3.895 48-27.258 48-55.419s-20.899-51.525-48-55.419V168h3.056l4.847 9.693 3.423.952a71.64 71.64 0 0 1 16.042 6.648l3.095 1.75 10.289-3.429 15.635 15.635-3.429 10.289 1.75 3.095a71.547 71.547 0 0 1 6.648 16.042l.952 3.423 9.693 4.847v22.111z" fill="#000000" opacity="1" data-original="#000000"></path></g></svg>