<svg xmlns="http://www.w3.org/2000/svg" version="1.1" xmlns:xlink="http://www.w3.org/1999/xlink" width="512" height="512" x="0" y="0" viewBox="0 0 256 256" style="enable-background:new 0 0 512 512" xml:space="preserve"><g><path fill="#fc657e" d="M39.136 78.206H18.458c-4.023 0-7.283 3.261-7.283 7.284s3.261 7.284 7.283 7.284h20.678a7.284 7.284 0 1 0 0-14.568z" opacity="1" data-original="#fc657e"></path><circle cx="110.448" cy="232.832" r="14.567" fill="#5b5d60" transform="rotate(-67.48 110.524 232.814)" opacity="1" data-original="#5b5d60"></circle><circle cx="170.278" cy="232.832" r="14.567" fill="#5b5d60" transform="rotate(-9.25 170.315 233.194)" opacity="1" data-original="#5b5d60"></circle><path fill="#dae6f1" d="M217.047 109.395a5.203 5.203 0 0 0-4.204-2.137H66.478L59.22 83.943a5.204 5.204 0 0 0-4.968-3.656H44.229a7.26 7.26 0 0 1 2.191 5.203 7.26 7.26 0 0 1-2.191 5.203h6.194l34.463 110.702a5.205 5.205 0 0 0 4.968 3.656h94.995c3.644 0 6.608 2.964 6.608 6.607s-2.964 6.607-6.608 6.607h-14.572c6.598 0 12.164 4.389 13.956 10.405h.616c9.381 0 17.013-7.632 17.013-17.012 0-7.025-4.281-13.068-10.37-15.66l26.304-81.946a5.204 5.204 0 0 0-.749-4.657zm-36.048 85.25H93.683l-23.965-76.982h135.991z" opacity="1" data-original="#dae6f1"></path><path fill="#dae6f1" d="M110.448 218.264c6.598 0 12.164 4.389 13.956 10.405h31.917c1.792-6.016 7.358-10.405 13.956-10.405zM89.854 218.264a5.202 5.202 0 1 0 0 10.406h6.638c1.792-6.016 7.358-10.405 13.956-10.405H89.854z" opacity="1" data-original="#dae6f1"></path><path fill="#c18e6b" d="M99.002 134.295h75.958v60.35H99.002z" opacity="1" data-original="#c18e6b"></path><path fill="#f5c84c" d="M104.233 117.663h65.496v16.632h-65.496zM165.902 80.396h-61.668v26.862h65.496V84.224a3.829 3.829 0 0 0-3.828-3.828z" opacity="1" data-original="#f5c84c"></path><path fill="#70d6f9" d="M155.87 45.019H89.648a3.828 3.828 0 0 0-3.828 3.828v27.722a3.827 3.827 0 0 0 3.828 3.827h70.049v-31.55a3.826 3.826 0 0 0-3.827-3.827z" opacity="1" data-original="#70d6f9"></path><path fill="#c18e6b" d="M146.68 8.601h-39.649a3.827 3.827 0 0 0-3.827 3.827v32.59h47.304v-32.59a3.828 3.828 0 0 0-3.828-3.827z" opacity="1" data-original="#c18e6b"></path><path fill="#754e34" d="M128.011 134.295h17.941v20.654h-17.941z" opacity="1" data-original="#754e34"></path><path fill="#dae6f1" d="M114.708 45.019V56.39a3.375 3.375 0 0 0 3.374 3.374h9.354a3.374 3.374 0 0 0 3.374-3.374V45.019z" opacity="1" data-original="#dae6f1"></path><path fill="#fc657e" d="M247.22 138.51c-3.157-.561-5.613-3.017-6.245-6.104 0-.14-.281-.14-.281 0-.632 3.087-3.087 5.543-6.245 6.104-.14 0-.14.211 0 .281 3.157.561 5.613 3.017 6.245 6.104 0 .14.281.14.281 0 .631-3.087 3.087-5.543 6.245-6.104.14-.071.14-.281 0-.281z" opacity="1" data-original="#fc657e"></path><path fill="#87d147" d="M173.41 0a3.4 3.4 0 1 0 0 6.8 3.4 3.4 0 0 0 0-6.8z" opacity="1" data-original="#87d147"></path><path fill="#70d6f9" d="M58.544 217.873h-2.3v-2.3c0-1.8-1.4-3.2-3.2-3.2s-3.2 1.5-3.2 3.2v2.3h-2.3c-1.8 0-3.2 1.4-3.2 3.2s1.5 3.2 3.2 3.2h2.3v2.3c0 1.8 1.4 3.2 3.2 3.2s3.2-1.5 3.2-3.2v-2.3h2.3c1.8 0 3.2-1.4 3.2-3.2s-1.499-3.2-3.2-3.2z" opacity="1" data-original="#70d6f9"></path><path fill="#f5c84c" d="M74.01 249.2a3.4 3.4 0 1 0 0 6.8 3.4 3.4 0 0 0 0-6.8z" opacity="1" data-original="#f5c84c"></path><path d="M39.137 75.707H18.458c-5.395 0-9.783 4.389-9.783 9.783s4.389 9.784 9.783 9.784h20.679c5.395 0 9.783-4.389 9.783-9.784s-4.389-9.783-9.783-9.783zm0 14.566H18.458c-2.638 0-4.783-2.146-4.783-4.784s2.146-4.783 4.783-4.783h20.679c2.638 0 4.783 2.146 4.783 4.783s-2.146 4.784-4.783 4.784zM110.448 215.764c-9.411 0-17.067 7.656-17.067 17.067s7.656 17.067 17.067 17.067 17.067-7.656 17.067-17.067-7.656-17.067-17.067-17.067zm0 29.135c-6.654 0-12.067-5.414-12.067-12.067s5.413-12.067 12.067-12.067 12.067 5.414 12.067 12.067-5.412 12.067-12.067 12.067zM170.277 215.764c-9.411 0-17.067 7.656-17.067 17.067s7.656 17.067 17.067 17.067 17.067-7.656 17.067-17.067-7.656-17.067-17.067-17.067zm0 29.135c-6.654 0-12.067-5.414-12.067-12.067s5.413-12.067 12.067-12.067 12.067 5.414 12.067 12.067-5.412 12.067-12.067 12.067z" fill="#000000" opacity="1" data-original="#000000"></path><path d="M193.958 211.658c0-5.022-4.086-9.107-9.165-9.107H89.854a2.693 2.693 0 0 1-2.581-1.899L52.811 89.949a2.5 2.5 0 0 0-2.387-1.757h-5.952a2.5 2.5 0 1 0 0 5h4.112L82.5 202.138a7.671 7.671 0 0 0 7.354 5.413h94.995c2.266 0 4.108 1.843 4.108 4.107s-1.843 4.106-4.108 4.106h-14.572a2.5 2.5 0 1 0 0 5h14.572c5.023 0 9.109-4.085 9.109-9.106zm25.108-103.736a7.726 7.726 0 0 0-6.224-3.164H68.318l-6.711-21.56a7.674 7.674 0 0 0-7.355-5.411h-9.783a2.5 2.5 0 1 0 0 5h9.783c1.189 0 2.228.764 2.582 1.899l7.258 23.315a2.5 2.5 0 0 0 2.387 1.757h146.364c.86 0 1.677.415 2.185 1.11a2.71 2.71 0 0 1 .389 2.418l-26.304 81.946a2.5 2.5 0 0 0 1.401 3.064 14.508 14.508 0 0 1 8.85 13.36c0 8.002-6.511 14.512-14.514 14.512a2.5 2.5 0 1 0 0 5c10.76 0 19.514-8.753 19.514-19.512a19.493 19.493 0 0 0-9.834-16.94l25.648-79.903a7.723 7.723 0 0 0-1.112-6.891zM93.684 197.145h87.315a2.502 2.502 0 0 0 2.381-1.736l24.71-76.981a2.5 2.5 0 0 0-2.381-3.264H69.718a2.5 2.5 0 0 0-2.387 3.243l23.966 76.981a2.5 2.5 0 0 0 2.387 1.757zm108.597-76.981-23.105 71.981H95.523l-22.409-71.981zM155.71 226.169h-30.694a2.5 2.5 0 1 0 0 5h30.694a2.5 2.5 0 1 0 0-5z" fill="#000000" opacity="1" data-original="#000000"></path><path d="M170.277 215.764h-59.829a2.5 2.5 0 1 0 0 5h59.829a2.5 2.5 0 1 0 0-5z" fill="#000000" opacity="1" data-original="#000000"></path><path d="M110.448 215.764H89.854c-4.247 0-7.703 3.456-7.703 7.703s3.456 7.703 7.703 7.703h6.026a2.5 2.5 0 1 0 0-5h-6.026c-1.49 0-2.703-1.212-2.703-2.703s1.213-2.703 2.703-2.703h20.594a2.5 2.5 0 1 0 0-5zM99.003 132.917a2.5 2.5 0 0 0-2.5 2.5v58.488a2.5 2.5 0 1 0 5 0v-58.488a2.5 2.5 0 0 0-2.5-2.5zM174.96 133.292a2.5 2.5 0 0 0-2.5 2.5v57.833a2.5 2.5 0 1 0 5 0v-57.833a2.5 2.5 0 0 0-2.5-2.5z" fill="#000000" opacity="1" data-original="#000000"></path><path d="M199.672 131.795H75.526a2.5 2.5 0 1 0 0 5h124.146a2.5 2.5 0 1 0 0-5zM192.908 152.449H81.79a2.5 2.5 0 1 0 0 5h111.118a2.5 2.5 0 1 0 0-5zM186.146 173.104H88.163a2.5 2.5 0 1 0 0 5h97.982a2.5 2.5 0 0 0 .001-5z" fill="#000000" opacity="1" data-original="#000000"></path><path d="M169.729 116.292a2.5 2.5 0 0 0-2.5 2.5v14.458a2.5 2.5 0 1 0 5 0v-14.458a2.5 2.5 0 0 0-2.5-2.5zM104.233 116.25a2.5 2.5 0 0 0-2.5 2.5v14.406a2.5 2.5 0 1 0 5 0V118.75a2.5 2.5 0 0 0-2.5-2.5zM104.233 78.875a2.5 2.5 0 0 0-2.5 2.5v24.542a2.5 2.5 0 1 0 5 0V81.375a2.5 2.5 0 0 0-2.5-2.5zM165.901 77.896h-6.734a2.5 2.5 0 1 0 0 5h6.734a1.33 1.33 0 0 1 1.328 1.328v21.942a2.5 2.5 0 1 0 5 0V84.224a6.335 6.335 0 0 0-6.328-6.328z" fill="#000000" opacity="1" data-original="#000000"></path><path d="M155.87 42.519H89.648a6.335 6.335 0 0 0-6.328 6.328v27.722a6.336 6.336 0 0 0 6.328 6.328h70.049a2.5 2.5 0 0 0 2.5-2.5v-31.55a6.334 6.334 0 0 0-6.327-6.328zm1.327 35.377H89.648a1.33 1.33 0 0 1-1.328-1.328V48.847a1.33 1.33 0 0 1 1.328-1.328h66.222a1.33 1.33 0 0 1 1.327 1.328z" fill="#000000" opacity="1" data-original="#000000"></path><path d="M146.681 6.101h-39.649a6.335 6.335 0 0 0-6.328 6.328v31.259a2.5 2.5 0 1 0 5 0V12.429a1.33 1.33 0 0 1 1.328-1.328h39.649a1.33 1.33 0 0 1 1.327 1.328v31.259a2.5 2.5 0 1 0 5 0V12.429a6.334 6.334 0 0 0-6.327-6.328zM145.952 132.917a2.5 2.5 0 0 0-2.5 2.5v18.458a2.5 2.5 0 1 0 5 0v-18.458a2.5 2.5 0 0 0-2.5-2.5zM128.011 132.917a2.5 2.5 0 0 0-2.5 2.5v18.458a2.5 2.5 0 1 0 5 0v-18.458a2.5 2.5 0 0 0-2.5-2.5z" fill="#000000" opacity="1" data-original="#000000"></path><path d="M130.81 43.75a2.5 2.5 0 0 0-2.5 2.5v10.141a.875.875 0 0 1-.874.874h-9.354a.875.875 0 0 1-.873-.874V46.313a2.5 2.5 0 1 0-5 0v10.078a5.88 5.88 0 0 0 5.873 5.874h9.354a5.88 5.88 0 0 0 5.874-5.874V46.25a2.5 2.5 0 0 0-2.5-2.5z" fill="#000000" opacity="1" data-original="#000000"></path><path fill="#f5c84c" d="M206.41 28.396c-4.5-.8-8-4.3-8.9-8.7 0-.2-.4-.2-.4 0-.9 4.4-4.4 7.9-8.9 8.7-.2 0-.2.3 0 .4 4.5.8 8 4.3 8.9 8.7 0 .2.4.2.4 0 .9-4.4 4.4-7.9 8.9-8.7.2-.099.2-.4 0-.4z" opacity="1" data-original="#f5c84c"></path></g></svg>