<svg xmlns="http://www.w3.org/2000/svg" version="1.1" xmlns:xlink="http://www.w3.org/1999/xlink" width="512" height="512" x="0" y="0" viewBox="0 0 682.667 682.667" style="enable-background:new 0 0 512 512" xml:space="preserve" class=""><g><defs><clipPath id="a" clipPathUnits="userSpaceOnUse"><path d="M0 512h512V0H0Z" fill="#000000" opacity="1" data-original="#000000"></path></clipPath></defs><g clip-path="url(#a)" transform="matrix(1.33333 0 0 -1.33333 0 682.667)"><path d="M0 0c-9.501-34.626 3.869-61.5 40.111-80.652-93.967-43.504-191.495-76.473-292.585-98.908 17.188 37.214 11.51 66.688-17.052 88.447" style="fill-opacity:1;fill-rule:nonzero;stroke:none" transform="translate(322.194 194.878)" fill="#ffbf3e" data-original="#ffbf3e"></path><path d="m0 0-274.827-92.904c-5.926-2.004-9.107-8.432-7.103-14.358l9.438-27.921c2.003-5.926 8.432-9.106 14.358-7.103L16.693-49.381c5.926 2.003 9.106 8.431 7.103 14.358l-9.438 27.92C12.354-1.177 5.926 2.003 0 0" style="fill-opacity:1;fill-rule:nonzero;stroke:none" transform="translate(308.15 245.16)" fill="#ff8040" data-original="#ff8040"></path><path d="m0 0-199.059-67.292c-5.926-2.003-9.107-8.431-7.103-14.357l9.438-27.921c2.003-5.926 8.432-9.106 14.358-7.103L92.461-23.769c5.926 2.004 9.106 8.432 7.103 14.358L90.126 18.51c-2.003 5.926-8.432 9.106-14.358 7.103L30.379 10.27" style="stroke-width:15;stroke-linecap:round;stroke-linejoin:round;stroke-miterlimit:10;stroke-dasharray:none;stroke-opacity:1" transform="translate(232.381 219.546)" fill="none" stroke="#000000" stroke-width="15" stroke-linecap="round" stroke-linejoin="round" stroke-miterlimit="10" stroke-dasharray="none" stroke-opacity="" data-original="#000000"></path><path d="m0 0-27.85-9.42-21.53-7.28-92.77 274.44c-4.61 13.64 2.7 28.43 16.34 33.04a25.98 25.98 0 0 0 11.59 1.17c9.6-1.21 18.15-7.74 21.45-17.51z" style="fill-opacity:1;fill-rule:nonzero;stroke:none" transform="translate(195.424 207.058)" fill="#e86328" data-original="#e86328"></path><path d="m0 0-27.85-9.42-92.78 274.44c-3.3 9.78-.48 20.15 6.41 26.93 9.6-1.21 18.15-7.74 21.45-17.51z" style="fill-opacity:1;fill-rule:nonzero;stroke:none" transform="translate(195.424 207.058)" fill="#ff8040" data-original="#ff8040"></path><path d="m0 0 70.142-207.493 49.381 16.694L26.749 83.643C22.14 97.279 7.348 104.597-6.288 99.987c-13.636-4.61-20.954-19.401-16.344-33.037l13.481-39.881" style="stroke-width:15;stroke-linecap:round;stroke-linejoin:round;stroke-miterlimit:10;stroke-dasharray:none;stroke-opacity:1" transform="translate(75.903 397.853)" fill="none" stroke="#000000" stroke-width="15" stroke-linecap="round" stroke-linejoin="round" stroke-miterlimit="10" stroke-dasharray="none" stroke-opacity="" data-original="#000000"></path><path d="M0 0c28.57-21.76 34.24-51.24 17.06-88.45 59.65 13.24 118.05 30.14 175.22 50.72" style="stroke-width:15;stroke-linecap:round;stroke-linejoin:round;stroke-miterlimit:10;stroke-dasharray:none;stroke-opacity:1" transform="translate(52.664 103.768)" fill="none" stroke="#000000" stroke-width="15" stroke-linecap="round" stroke-linejoin="round" stroke-miterlimit="10" stroke-dasharray="none" stroke-opacity="" data-original="#000000"></path><path d="M0 0c-9.5-34.63 3.87-61.5 40.11-80.65-6.65-3.08-13.32-6.11-20.01-9.08" style="stroke-width:15;stroke-linecap:round;stroke-linejoin:round;stroke-miterlimit:10;stroke-dasharray:none;stroke-opacity:1" transform="translate(322.194 194.878)" fill="none" stroke="#000000" stroke-width="15" stroke-linecap="round" stroke-linejoin="round" stroke-miterlimit="10" stroke-dasharray="none" stroke-opacity="" data-original="#000000"></path><path d="M0 0c10.424 34.928 3.772 64.073-19.972 87.46" style="stroke-width:15;stroke-linecap:round;stroke-linejoin:round;stroke-miterlimit:10;stroke-dasharray:none;stroke-opacity:1" transform="translate(106.758 27.839)" fill="none" stroke="#000000" stroke-width="15" stroke-linecap="round" stroke-linejoin="round" stroke-miterlimit="10" stroke-dasharray="none" stroke-opacity="" data-original="#000000"></path><path d="M0 0c-19.25 19.3-26.96 42.52-23.11 69.66" style="stroke-width:15;stroke-linecap:round;stroke-linejoin:round;stroke-miterlimit:10;stroke-dasharray:none;stroke-opacity:1" transform="translate(311.184 113.688)" fill="none" stroke="#000000" stroke-width="15" stroke-linecap="round" stroke-linejoin="round" stroke-miterlimit="10" stroke-dasharray="none" stroke-opacity="" data-original="#000000"></path><path d="M0 0c2.646 32.298-5.125 61.065-23.328 86.326" style="stroke-width:15;stroke-linecap:round;stroke-linejoin:round;stroke-miterlimit:10;stroke-dasharray:none;stroke-opacity:1" transform="translate(149.35 42.237)" fill="none" stroke="#000000" stroke-width="15" stroke-linecap="round" stroke-linejoin="round" stroke-miterlimit="10" stroke-dasharray="none" stroke-opacity="" data-original="#000000"></path><path d="M0 0c.58-21.1 5.95-40.58 16.12-58.43" style="stroke-width:15;stroke-linecap:round;stroke-linejoin:round;stroke-miterlimit:10;stroke-dasharray:none;stroke-opacity:1" transform="translate(248.844 170.078)" fill="none" stroke="#000000" stroke-width="15" stroke-linecap="round" stroke-linejoin="round" stroke-miterlimit="10" stroke-dasharray="none" stroke-opacity="" data-original="#000000"></path><path d="M0 0c-4.793 29.784-13.636 58.188-26.539 85.24" style="stroke-width:15;stroke-linecap:round;stroke-linejoin:round;stroke-miterlimit:10;stroke-dasharray:none;stroke-opacity:1" transform="translate(190.089 56.009)" fill="none" stroke="#000000" stroke-width="15" stroke-linecap="round" stroke-linejoin="round" stroke-miterlimit="10" stroke-dasharray="none" stroke-opacity="" data-original="#000000"></path><path d="M0 0a310.75 310.75 0 0 1 19.3-60.53" style="stroke-width:15;stroke-linecap:round;stroke-linejoin:round;stroke-miterlimit:10;stroke-dasharray:none;stroke-opacity:1" transform="translate(211.314 157.398)" fill="none" stroke="#000000" stroke-width="15" stroke-linecap="round" stroke-linejoin="round" stroke-miterlimit="10" stroke-dasharray="none" stroke-opacity="" data-original="#000000"></path><path d="M0 0c0 12.515-10.146 22.661-22.661 22.661-9.89 0-18.295-6.338-21.388-15.172-.716.04-1.435.065-2.161.065-21.104 0-38.212-17.108-38.212-38.212 0-21.104 17.108-38.213 38.212-38.213 21.104 0 38.212 17.109 38.212 38.213a38.15 38.15 0 0 1-1.909 11.927C-3.927-14.651 0-7.785 0 0" style="fill-opacity:1;fill-rule:nonzero;stroke:none" transform="translate(485.318 102.22)" fill="#e4e4ef" data-original="#e4e4ef"></path><path d="M0 0c1.08 0 2.16.05 3.22.14-6.7-5.77-15.42-9.26-24.94-9.26-21.1 0-38.21 17.11-38.21 38.21 0 20.02 15.39 36.44 34.98 38.07-8.12-7.01-13.26-17.38-13.26-28.95C-38.21 17.11-21.1 0 0 0" style="fill-opacity:1;fill-rule:nonzero;stroke:none" transform="translate(460.826 42.471)" fill="#cacadb" data-original="#cacadb"></path><path d="M0 0c0-10.09-6.37-18.7-15.31-22.01-2.54-.94-5.28-1.45-8.14-1.45-12.96 0-23.46 10.5-23.46 23.46 0 12.95 10.5 23.45 23.46 23.45 2.86 0 5.6-.51 8.14-1.45C-6.37 18.69 0 10.09 0 0" style="fill-opacity:1;fill-rule:nonzero;stroke:none" transform="translate(434.124 183.868)" fill="#cacadb" data-original="#cacadb"></path><path d="M0 0c0-10.09-6.37-18.7-15.31-22.01C-24.25-18.7-30.62-10.09-30.62 0c0 10.09 6.37 18.69 15.31 22C-6.37 18.69 0 10.09 0 0" style="fill-opacity:1;fill-rule:nonzero;stroke:none" transform="translate(434.124 183.868)" fill="#e4e4ef" data-original="#e4e4ef"></path><path d="M0 0c0-16.87-13.68-30.54-30.54-30.54-16.87 0-30.55 13.67-30.55 30.54 0 2.23.25 4.41.7 6.5-7.38 2.21-12.77 9.05-12.77 17.16 0 9.89 8.02 17.9 17.91 17.9 1.28 0 2.53-.14 3.73-.4 2.49 9.13 10.81 15.85 20.73 15.85 11.87 0 21.5-9.63 21.5-21.51 0-4.01-1.12-7.76-3.04-10.98C-4.85 18.95 0 10.04 0 0" style="fill-opacity:1;fill-rule:nonzero;stroke:none" transform="translate(488.374 271.508)" fill="#e4e4ef" data-original="#e4e4ef"></path><path d="M0 0c0 12.515-10.146 22.661-22.661 22.661-9.89 0-18.295-6.338-21.388-15.172-.716.04-1.435.065-2.161.065-21.104 0-38.212-17.108-38.212-38.212 0-21.104 17.108-38.213 38.212-38.213 21.104 0 38.212 17.109 38.212 38.213a38.15 38.15 0 0 1-1.909 11.927C-3.927-14.651 0-7.785 0 0Z" style="stroke-width:15;stroke-linecap:round;stroke-linejoin:round;stroke-miterlimit:10;stroke-dasharray:none;stroke-opacity:1" transform="translate(485.318 102.22)" fill="none" stroke="#000000" stroke-width="15" stroke-linecap="round" stroke-linejoin="round" stroke-miterlimit="10" stroke-dasharray="none" stroke-opacity="" data-original="#000000"></path><path d="M0 0c0 12.955-10.502 23.457-23.457 23.457S-46.914 12.955-46.914 0s10.502-23.457 23.457-23.457S0-12.955 0 0Z" style="stroke-width:15;stroke-linecap:round;stroke-linejoin:round;stroke-miterlimit:10;stroke-dasharray:none;stroke-opacity:1" transform="translate(434.127 183.864)" fill="none" stroke="#000000" stroke-width="15" stroke-linecap="round" stroke-linejoin="round" stroke-miterlimit="10" stroke-dasharray="none" stroke-opacity="" data-original="#000000"></path><path d="M0 0c1.16-18.59-10.23-36.35-28.75-42.48a41.913 41.913 0 0 0-12.22-2.12c-18-.44-34.93 10.82-40.88 28.8-.25.76-.48 1.52-.68 2.28-10.3.18-19.82 6.76-23.24 17.09-4.32 13.06 2.76 27.16 15.83 31.49 8.13 2.69 16.65.97 22.98-3.87 3.49 2.59 7.44 4.68 11.79 6.12a41.788 41.788 0 0 0 20.33 1.53v-.01a42.11 42.11 0 0 0 24-13.17c2.58 2.24 5.93 3.6 9.61 3.6 8.1 0 14.66-6.56 14.66-14.66C13.43 6.92 7.52.63 0 0" style="fill-opacity:1;fill-rule:nonzero;stroke:none" transform="translate(336.414 77.728)" fill="#e4e4ef" data-original="#e4e4ef"></path><path d="M0 0c-18-.44-34.93 10.82-40.88 28.8-.25.76-.48 1.52-.68 2.28-10.3.18-19.82 6.76-23.24 17.09-4.32 13.06 2.76 27.16 15.83 31.49 8.13 2.69 16.65.97 22.98-3.87 3.49 2.59 7.44 4.68 11.79 6.12a41.788 41.788 0 0 0 20.33 1.53v-.01C-14.2 81.91-35.07 20.91 0 0" style="fill-opacity:1;fill-rule:nonzero;stroke:none" transform="translate(295.444 33.128)" fill="#cacadb" data-original="#cacadb"></path><path d="M0 0c0 8.097-6.563 14.661-14.661 14.661a14.59 14.59 0 0 1-9.608-3.605c-10.833 11.921-28.053 17.04-44.33 11.651a41.991 41.991 0 0 1-11.793-6.117c-6.327 4.833-14.854 6.559-22.982 3.868-13.066-4.327-20.151-18.427-15.825-31.494 3.419-10.326 12.942-16.91 23.235-17.086.205-.761.429-1.521.68-2.279 7.296-22.034 31.073-33.982 53.107-26.686 18.514 6.13 29.902 23.897 28.742 42.488C-5.913-13.975 0-7.683 0 0Z" style="stroke-width:15;stroke-linecap:round;stroke-linejoin:round;stroke-miterlimit:10;stroke-dasharray:none;stroke-opacity:1" transform="translate(349.845 92.331)" fill="none" stroke="#000000" stroke-width="15" stroke-linecap="round" stroke-linejoin="round" stroke-miterlimit="10" stroke-dasharray="none" stroke-opacity="" data-original="#000000"></path><path d="M0 0v0" style="stroke-width:15;stroke-linecap:round;stroke-linejoin:round;stroke-miterlimit:10;stroke-dasharray:none;stroke-opacity:1" transform="translate(474.199 198.524)" fill="none" stroke="#000000" stroke-width="15" stroke-linecap="round" stroke-linejoin="round" stroke-miterlimit="10" stroke-dasharray="none" stroke-opacity="" data-original="#000000"></path><path d="M0 0v0" style="stroke-width:15;stroke-linecap:round;stroke-linejoin:round;stroke-miterlimit:10;stroke-dasharray:none;stroke-opacity:1" transform="translate(367.013 49.35)" fill="none" stroke="#000000" stroke-width="15" stroke-linecap="round" stroke-linejoin="round" stroke-miterlimit="10" stroke-dasharray="none" stroke-opacity="" data-original="#000000"></path><path d="M0 0v0" style="stroke-width:15;stroke-linecap:round;stroke-linejoin:round;stroke-miterlimit:10;stroke-dasharray:none;stroke-opacity:1" transform="translate(376.461 250.326)" fill="none" stroke="#000000" stroke-width="15" stroke-linecap="round" stroke-linejoin="round" stroke-miterlimit="10" stroke-dasharray="none" stroke-opacity="" data-original="#000000"></path><path d="M0 0c-16.87 0-30.55 13.67-30.55 30.54 0 2.23.25 4.41.7 6.5-7.38 2.21-12.77 9.05-12.77 17.16 0 9.89 8.02 17.9 17.91 17.9 1.28 0 2.53-.14 3.73-.4 2.49 9.13 10.81 15.85 20.73 15.85-22.37-13.18-7.17-41.56-7.17-41.56C-24.79 33.83-19.58 0 0 0" style="fill-opacity:1;fill-rule:nonzero;stroke:none" transform="translate(457.834 240.968)" fill="#cacadb" data-original="#cacadb"></path><path d="M0 0a21.367 21.367 0 0 1 3.042 10.983c0 11.876-9.627 21.503-21.502 21.503-9.915 0-18.24-6.72-20.726-15.846a17.92 17.92 0 0 1-3.732.403c-9.892 0-17.91-8.018-17.91-17.909 0-8.104 5.385-14.942 12.769-17.153a30.597 30.597 0 0 1-.7-6.501c0-16.869 13.675-30.544 30.545-30.544 16.869 0 30.544 13.675 30.544 30.544C12.33-14.477 7.482-5.567 0 0Z" style="stroke-width:15;stroke-linecap:round;stroke-linejoin:round;stroke-miterlimit:10;stroke-dasharray:none;stroke-opacity:1" transform="translate(476.044 296.03)" fill="none" stroke="#000000" stroke-width="15" stroke-linecap="round" stroke-linejoin="round" stroke-miterlimit="10" stroke-dasharray="none" stroke-opacity="" data-original="#000000"></path></g></g></svg>