<svg xmlns="http://www.w3.org/2000/svg" version="1.1" xmlns:xlink="http://www.w3.org/1999/xlink" width="512" height="512" x="0" y="0" viewBox="0 0 128 128" style="enable-background:new 0 0 512 512" xml:space="preserve" class=""><g><path fill="#feb103" d="M104.09 104.09A56.686 56.686 0 1 0 64 120.7a56.515 56.515 0 0 0 40.09-16.61z" opacity="1" data-original="#feb103" class="hovered-path custom-cursor-on-hover"></path><path fill="#979797" d="M104.09 104.09a41.453 41.453 0 0 0-80.18 0 56.686 56.686 0 0 0 80.18 0z" opacity="1" data-original="#979797" class=""></path><circle cx="64" cy="51.818" r="21.364" fill="#fde2c5" opacity="1" data-original="#fde2c5" class=""></circle><path d="M23.117 100.68a56.32 56.32 0 0 1-2.757-3.3 1.75 1.75 0 1 0-2.781 2.12 58.445 58.445 0 0 0 95.211-67.686 1.751 1.751 0 1 0-2.92 1.932 54.93 54.93 0 0 1-4.981 66.952 43.2 43.2 0 0 0-30.827-28.075 23.113 23.113 0 1 0-20.124 0 43.2 43.2 0 0 0-30.821 28.057zm21.27-48.862a19.613 19.613 0 1 1 19.64 19.612h-.054a19.635 19.635 0 0 1-19.586-19.612zM63.958 74.93h.084a39.7 39.7 0 0 1 38.083 28.616 54.882 54.882 0 0 1-76.25 0A39.7 39.7 0 0 1 63.958 74.93zM104.371 26.733a1.75 1.75 0 1 0 2.578-2.367 54.75 54.75 0 0 0-3.636-3.615 1.75 1.75 0 1 0-2.346 2.6 50.624 50.624 0 0 1 3.404 3.382z" fill="#000000" opacity="1" data-original="#000000" class=""></path><path d="M64 9.05a54.686 54.686 0 0 1 29.906 8.856 1.75 1.75 0 0 0 1.909-2.933 58.449 58.449 0 0 0-83.347 76.615 1.75 1.75 0 1 0 3.084-1.656A54.953 54.953 0 0 1 64 9.05z" fill="#000000" opacity="1" data-original="#000000" class="hovered-path custom-cursor-on-hover"></path></g></svg>