<svg xmlns="http://www.w3.org/2000/svg" version="1.1" xmlns:xlink="http://www.w3.org/1999/xlink" width="512" height="512" x="0" y="0" viewBox="0 0 682.667 682.667" style="enable-background:new 0 0 512 512" xml:space="preserve"><g><defs><clipPath id="a" clipPathUnits="userSpaceOnUse"><path d="M0 512h512V0H0Z" fill="#000000" opacity="1" data-original="#000000"></path></clipPath></defs><g clip-path="url(#a)" transform="matrix(1.33333 0 0 -1.33333 0 682.667)"><path d="M0 0c0-15.299-12.402-27.701-27.701-27.701h-175.155c-15.299 0-27.701-12.402-27.701-27.701V-289.72c0-15.299 12.402-27.701 27.701-27.701h355.939c15.299 0 27.701 12.402 27.701 27.701V0c0 15.299-12.402 27.701-27.701 27.701H27.701C12.402 27.701 0 15.299 0 0" style="fill-opacity:1;fill-rule:nonzero;stroke:none" transform="translate(311.563 329.69)" fill="#e5ae13" data-original="#e5ae13"></path><path d="M459.984 427.89H159.999V44.548h299.985z" style="fill-opacity:1;fill-rule:nonzero;stroke:none" fill="#cbcbcb" data-original="#cbcbcb"></path><path d="M411.72 502.269H111.735v-254.37H411.72Z" style="fill-opacity:1;fill-rule:nonzero;stroke:none" fill="#cbcbcb" data-original="#cbcbcb"></path><path d="M363.455 427.89H63.47V247.899h299.985z" style="fill-opacity:1;fill-rule:nonzero;stroke:none" fill="#e6e6e6" data-original="#e6e6e6"></path><path d="M0 0c0-15.299-12.402-27.701-27.701-27.701h-175.154c-15.299 0-27.702-12.402-27.702-27.701V-289.72c0-15.299 12.403-27.701 27.702-27.701h355.938c15.299 0 27.701 12.402 27.701 27.701V0c0 15.299-12.402 27.701-27.701 27.701H27.701C12.402 27.701 0 15.299 0 0" style="fill-opacity:1;fill-rule:nonzero;stroke:none" transform="translate(252.2 329.69)" fill="#f7c421" data-original="#f7c421"></path><path d="M0 0h-29.361C-44.66 0-57.062-12.402-57.062-27.701v-234.318c0-15.298 12.402-27.701 27.701-27.701h355.939c15.298 0 27.701 12.403 27.701 27.701v289.72c0 15.299-12.403 27.701-27.701 27.701H201.196c-15.299 0-27.701-12.402-27.701-27.701C173.495 12.402 161.093 0 145.793 0H30.001" style="stroke-width:15;stroke-linecap:round;stroke-linejoin:round;stroke-miterlimit:10;stroke-dasharray:none;stroke-opacity:1" transform="translate(78.706 301.989)" fill="none" stroke="#000000" stroke-width="15" stroke-linecap="round" stroke-linejoin="round" stroke-miterlimit="10" stroke-dasharray="none" stroke-opacity="" data-original="#000000"></path><path d="M0 0h4.67c15.29 0 27.7-12.4 27.7-27.7v-289.72c0-15.3-12.41-27.7-27.7-27.7H-54.7" style="stroke-width:15;stroke-linecap:round;stroke-linejoin:round;stroke-miterlimit:10;stroke-dasharray:none;stroke-opacity:1" transform="translate(459.98 357.39)" fill="none" stroke="#000000" stroke-width="15" stroke-linecap="round" stroke-linejoin="round" stroke-miterlimit="10" stroke-dasharray="none" stroke-opacity="" data-original="#000000"></path><path d="M0 0v70.5h-299.98V-55.4" style="stroke-width:15;stroke-linecap:round;stroke-linejoin:round;stroke-miterlimit:10;stroke-dasharray:none;stroke-opacity:1" transform="translate(363.45 357.39)" fill="none" stroke="#000000" stroke-width="15" stroke-linecap="round" stroke-linejoin="round" stroke-miterlimit="10" stroke-dasharray="none" stroke-opacity="" data-original="#000000"></path><path d="M0 0v145.639h-299.99V71.26" style="stroke-width:15;stroke-linecap:round;stroke-linejoin:round;stroke-miterlimit:10;stroke-dasharray:none;stroke-opacity:1" transform="translate(411.72 356.63)" fill="none" stroke="#000000" stroke-width="15" stroke-linecap="round" stroke-linejoin="round" stroke-miterlimit="10" stroke-dasharray="none" stroke-opacity="" data-original="#000000"></path><path d="M0 0v-198.844h-27" style="stroke-width:15;stroke-linecap:round;stroke-linejoin:round;stroke-miterlimit:10;stroke-dasharray:none;stroke-opacity:1" transform="translate(459.98 243.394)" fill="none" stroke="#000000" stroke-width="15" stroke-linecap="round" stroke-linejoin="round" stroke-miterlimit="10" stroke-dasharray="none" stroke-opacity="" data-original="#000000"></path><path d="M0 0h48.26v-154.495" style="stroke-width:15;stroke-linecap:round;stroke-linejoin:round;stroke-miterlimit:10;stroke-dasharray:none;stroke-opacity:1" transform="translate(411.72 427.89)" fill="none" stroke="#000000" stroke-width="15" stroke-linecap="round" stroke-linejoin="round" stroke-miterlimit="10" stroke-dasharray="none" stroke-opacity="" data-original="#000000"></path><path d="M0 0h179.991" style="stroke-width:15;stroke-linecap:round;stroke-linejoin:round;stroke-miterlimit:10;stroke-dasharray:none;stroke-opacity:1" transform="translate(110.5 388.89)" fill="none" stroke="#000000" stroke-width="15" stroke-linecap="round" stroke-linejoin="round" stroke-miterlimit="10" stroke-dasharray="none" stroke-opacity="" data-original="#000000"></path><path d="M0 0h102.962" style="stroke-width:15;stroke-linecap:round;stroke-linejoin:round;stroke-miterlimit:10;stroke-dasharray:none;stroke-opacity:1" transform="translate(110.5 351.392)" fill="none" stroke="#000000" stroke-width="15" stroke-linecap="round" stroke-linejoin="round" stroke-miterlimit="10" stroke-dasharray="none" stroke-opacity="" data-original="#000000"></path><path d="M396.986 205.899H240.994v55.497h155.992z" style="fill-opacity:1;fill-rule:nonzero;stroke:#000000;stroke-width:15;stroke-linecap:round;stroke-linejoin:round;stroke-miterlimit:10;stroke-dasharray:none;stroke-opacity:1" data-original="#000000"></path></g></g></svg>